<?xml version="1.0" encoding="utf-8"?>
<!-- Generator: Adobe Illustrator 25.4.1, SVG Export Plug-In . SVG Version: 6.00 Build 0)  -->
<svg version="1.1" id="Livello_1" xmlns="http://www.w3.org/2000/svg" xmlns:xlink="http://www.w3.org/1999/xlink" x="0px" y="0px"
	 viewBox="0 0 500.7 165.4" style="enable-background:new 0 0 500.7 165.4;" xml:space="preserve">
<style type="text/css">
	.st0{fill:#FFFFFF;}
	.st1{fill-rule:evenodd;clip-rule:evenodd;fill:#FFFFFF;}
</style>
<g>
	<path class="st0" d="M213.9,84.2h13.7c3.3,0,5.7,0.9,5.7,4.7c0,3.1-1.6,4.7-5.5,4.7h-14V84.2z M194.2,121.6h19.7v-15.3h14
		c3.6,0,4.9,2.2,5.1,5.9c0.4,5.8,0.4,8,1,9.4h21.5c-1.4-1.7-2.2-3.7-2.5-5.9l-0.8-10.9c-0.4-4.3-2.7-6.8-5.7-7.7V97
		c5.7-1.7,7.7-6.7,7.7-11.4c0-5.5-3.1-10.3-6.8-12.1c-2.7-1.3-6.1-1.8-11.8-1.8h-41.5L194.2,121.6z M134.7,121.6h53v-12.1h-33.3
		v-6.7h30.9V90.6h-30.9v-6.7h33.3V71.7h-53L134.7,121.6z M89.7,121.6h20.7l22.4-49.9h-21.6l-11,32H100l-11-32H67.4L89.7,121.6z
		 M20.9,96.6c0-10.1,5.1-14.1,13.1-14.1s13.1,4,13.1,14.1s-5.1,14.1-13.1,14.1S21,106.8,20.9,96.6L20.9,96.6z M-0.1,96.6
		c0,25.8,22.2,26.7,34.1,26.7s34.1-0.8,34.1-26.7S46,69.9,34,69.9S0,70.8-0.1,96.6L-0.1,96.6z"/>
	<path class="st0" d="M447.7,121.6h53v-12.2h-33.3v-6.7h31V90.6h-31v-6.7h33.3V71.7h-53L447.7,121.6z M376.5,121.6h18.9v-28h0.1
		l21,28h21.6V71.7h-18.9v27.7H419l-20-27.7h-22.5V121.6z M347,121.6h19.7V71.7H347V121.6z M291.2,121.6h50.2v-13.4h-30.5V71.7h-19.7
		L291.2,121.6z"/>
	<circle class="st0" cx="271.2" cy="97.9" r="7.9"/>
	<path class="st1" d="M269.7,82.1c-27.5-40.9,75-46,68.1-82.1c13.8,21-11,37.2-27.7,43.4C291.9,51.3,268,58.6,269.7,82.1"/>
	<path class="st1" d="M271.2,115c0,0,8.5,16.5,1.2,34.6s-43.7,12.7-43.7,14.1C258,161.3,274.2,144.3,271.2,115"/>
	<path class="st0" d="M496.9,164.5v-29.4h2.7v29.4H496.9z M452.3,164.5v-29.5h2.7v5.9h0.1c0.5-0.9,1.1-1.8,1.8-2.5
		c0.8-0.8,1.6-1.6,2.6-2.1c1.1-0.7,2.3-1.2,3.5-1.5c1.5-0.4,3-0.6,4.5-0.6c1.9,0,3.9,0.2,5.7,0.7c1.4,0.4,2.7,0.9,3.8,1.7
		c0.9,0.6,1.7,1.4,2.3,2.4c1,1.6,1.5,3.4,1.6,5.3c0,0.8,0.1,1.5,0.1,2.1v18.1h-2.7v-18c0-1.4-0.1-2.7-0.5-4.1
		c-0.3-1.2-0.9-2.3-1.7-3.2c-0.9-1-2.1-1.7-3.4-2.1c-1.7-0.5-3.6-0.8-5.4-0.7c-1.9,0-3.8,0.3-5.6,0.9c-1.4,0.6-2.8,1.4-3.9,2.5
		c-1,1-1.8,2.2-2.3,3.5c-0.5,1.3-0.7,2.6-0.7,4v17.2L452.3,164.5z M433.2,164.5v-29.4h2.7v29.4H433.2z M401.9,164.5v-29.4h2.7v7h0.1
		c0.8-2.4,2.4-4.4,4.6-5.6c2.3-1.2,4.9-1.8,7.5-1.7c0.4,0,0.8,0,1.1,0.1c0.3,0,0.7,0.1,1.1,0.3v2.6c-0.3-0.1-0.7-0.1-1.1-0.2
		c-0.6-0.1-1.3-0.1-1.9-0.1c-1.7,0-3.4,0.3-5,0.9c-1.4,0.5-2.6,1.4-3.6,2.5c-1,1-1.7,2.3-2.1,3.6c-0.5,1.4-0.7,2.8-0.7,4.3v15.9
		L401.9,164.5z M358.2,148.1h27c-0.2-1.8-0.8-3.6-1.6-5.2c-0.8-1.4-1.8-2.6-3-3.6c-1.2-1-2.6-1.7-4-2.1c-1.6-0.5-3.2-0.7-4.8-0.7
		c-3.3-0.2-6.6,1-9.2,3.1C360.2,141.9,358.6,144.9,358.2,148.1L358.2,148.1z M388.2,150.4h-30c0,1.8,0.4,3.5,1,5.1
		c0.6,1.5,1.5,2.9,2.7,4c1.3,1.2,2.7,2.1,4.4,2.7c1.9,0.7,3.9,1,5.9,1c1.9,0.1,3.9-0.3,5.7-0.9c1.3-0.5,2.6-1.3,3.6-2.3
		c0.9-0.8,1.6-1.7,2.1-2.8c0.4-0.8,0.8-1.6,1.1-2.4h2.6c-0.9,3.3-2.9,6.1-5.7,8.1c-2.9,1.8-6.3,2.7-9.7,2.5c-2.3,0-4.6-0.3-6.8-1.1
		c-1.9-0.7-3.7-1.7-5.2-3.1c-1.4-1.4-2.6-3.1-3.3-5c-0.8-2.1-1.2-4.4-1.1-6.6c0-1.7,0.3-3.4,0.8-5c0.6-1.8,1.5-3.5,2.7-5
		c1.4-1.6,3.1-2.9,5-3.8c2.5-1.1,5.2-1.6,7.9-1.5c2.3,0,4.6,0.4,6.8,1.2c1.9,0.7,3.6,1.9,5.1,3.4c1.4,1.5,2.5,3.2,3.2,5.1
		C387.8,145.9,388.2,148.1,388.2,150.4L388.2,150.4z M292.1,164.5v-29.5h2.7v5h0.1c1.1-1.9,2.8-3.4,4.8-4.4c2-1,4.3-1.5,6.5-1.5
		c1.6,0,3.1,0.2,4.6,0.5c1.2,0.3,2.3,0.8,3.2,1.5c0.8,0.6,1.5,1.3,2.1,2.2c0.5,0.8,1,1.7,1.3,2.6c0.9-2.1,2.5-3.9,4.5-5.1
		c2.1-1.2,4.5-1.8,6.9-1.7c4.3,0,7.4,0.9,9.3,2.7c2,1.8,2.9,4.4,2.9,7.7v20h-2.7v-19.1c0-1.2-0.2-2.3-0.5-3.4
		c-0.3-1.1-0.9-2-1.7-2.8c-0.8-0.9-1.9-1.6-3-2c-1.4-0.5-2.9-0.8-4.4-0.7c-3.6,0-6.3,0.9-8.2,2.6c-1.9,1.9-2.9,4.6-2.8,7.3v18.1
		h-2.7v-19.6c0.1-2.3-0.7-4.5-2.2-6.2c-1.5-1.5-3.9-2.3-7.3-2.3c-1.5,0-3,0.2-4.4,0.7c-1.3,0.4-2.4,1.1-3.4,2c-1,0.9-1.8,2-2.3,3.3
		c-0.6,1.4-0.8,3-0.8,4.5v17.5L292.1,164.5z"/>
</g>
</svg>
